<svg width="32" height="31" viewBox="0 0 32 31" fill="none" xmlns="http://www.w3.org/2000/svg">
<g clip-path="url(#clip0_16_11292)">
<path d="M16 0C24.8366 0 32 6.93591 32 15.4912C31.9997 24.0463 24.8364 30.9814 16 30.9814C7.1636 30.9814 0.000258715 24.0463 0 15.4912C0 6.93591 7.16344 0 16 0Z" fill="#3E4958"/>
<path d="M16 0C24.8366 0 32 6.93591 32 15.4912C31.9997 24.0463 24.8364 30.9814 16 30.9814C7.1636 30.9814 0.000258715 24.0463 0 15.4912C0 6.93591 7.16344 0 16 0Z" stroke="#3E4958"/>
<path d="M8.2345 17.0306L13.8665 21.4946L23.5945 11.0786" stroke="#BBD9E2" stroke-width="3" stroke-linecap="round"/>
</g>
<defs>
<clipPath id="clip0_16_11292">
<rect width="32" height="31" fill="white"/>
</clipPath>
</defs>
</svg>
