<svg width="375" height="812" viewBox="0 0 375 812" fill="none" xmlns="http://www.w3.org/2000/svg">
<g clip-path="url(#clip0_96_4647)">
<rect width="375" height="812" fill="#BBD9E2"/>
<rect width="375" height="812" fill="#3E4958" fill-opacity="0.8"/>
<path d="M50.0782 321V307.909H58.8992V310.191H52.846V313.31H58.4454V315.592H52.846V318.718H58.9248V321H50.0782ZM63.7716 315.324V321H61.0486V311.182H63.6437V312.914H63.7588C63.9761 312.343 64.3405 311.891 64.8518 311.559C65.3632 311.222 65.9832 311.054 66.7119 311.054C67.3937 311.054 67.9882 311.203 68.4953 311.501C69.0024 311.8 69.3966 312.226 69.6778 312.78C69.9591 313.33 70.0997 313.986 70.0997 314.749V321H67.3767V315.234C67.3809 314.634 67.2275 314.165 66.9165 313.828C66.6054 313.487 66.1771 313.317 65.6317 313.317C65.2652 313.317 64.9413 313.396 64.6601 313.553C64.3831 313.711 64.1657 313.941 64.0081 314.244C63.8547 314.542 63.7758 314.902 63.7716 315.324ZM75.0455 321.185C74.4191 321.185 73.8609 321.077 73.3708 320.859C72.8808 320.638 72.493 320.312 72.2075 319.881C71.9262 319.447 71.7856 318.906 71.7856 318.258C71.7856 317.712 71.8857 317.254 72.086 316.884C72.2863 316.513 72.559 316.214 72.9042 315.989C73.2494 315.763 73.6414 315.592 74.0803 315.477C74.5235 315.362 74.988 315.281 75.4738 315.234C76.0448 315.175 76.5051 315.119 76.8545 315.068C77.2039 315.013 77.4575 314.932 77.6151 314.825C77.7728 314.719 77.8517 314.561 77.8517 314.352V314.314C77.8517 313.909 77.7238 313.596 77.4681 313.374C77.2167 313.153 76.8588 313.042 76.3943 313.042C75.9042 313.042 75.5143 313.151 75.2245 313.368C74.9347 313.581 74.743 313.849 74.6492 314.173L72.1308 313.969C72.2586 313.372 72.51 312.857 72.885 312.422C73.26 311.983 73.7437 311.646 74.336 311.412C74.9326 311.173 75.623 311.054 76.407 311.054C76.9525 311.054 77.4745 311.118 77.9731 311.246C78.4759 311.374 78.9213 311.572 79.309 311.84C79.7011 312.109 80.01 312.454 80.2359 312.876C80.4617 313.293 80.5747 313.794 80.5747 314.378V321H77.9923V319.638H77.9156C77.7579 319.945 77.547 320.216 77.2828 320.45C77.0186 320.68 76.7011 320.862 76.3303 320.994C75.9596 321.121 75.5313 321.185 75.0455 321.185ZM75.8254 319.306C76.2259 319.306 76.5796 319.227 76.8865 319.07C77.1933 318.908 77.434 318.69 77.6088 318.418C77.7835 318.145 77.8708 317.836 77.8708 317.491V316.449C77.7856 316.504 77.6684 316.555 77.5193 316.602C77.3744 316.645 77.2103 316.685 77.0271 316.724C76.8438 316.758 76.6606 316.79 76.4774 316.82C76.2941 316.845 76.1279 316.869 75.9788 316.89C75.6592 316.937 75.3801 317.011 75.1414 317.114C74.9028 317.216 74.7174 317.354 74.5853 317.529C74.4532 317.7 74.3872 317.913 74.3872 318.168C74.3872 318.539 74.5214 318.822 74.7899 319.018C75.0626 319.21 75.4078 319.306 75.8254 319.306ZM82.7384 321V307.909H85.4614V312.831H85.5445C85.6638 312.567 85.8364 312.298 86.0622 312.026C86.2923 311.749 86.5906 311.518 86.9571 311.335C87.3279 311.148 87.7881 311.054 88.3378 311.054C89.0537 311.054 89.7142 311.241 90.3193 311.616C90.9244 311.987 91.4081 312.548 91.7703 313.298C92.1325 314.043 92.3137 314.979 92.3137 316.104C92.3137 317.199 92.1368 318.124 91.7831 318.878C91.4337 319.628 90.9564 320.197 90.3513 320.585C89.7504 320.968 89.0771 321.16 88.3314 321.16C87.803 321.16 87.3534 321.072 86.9827 320.898C86.6162 320.723 86.3158 320.504 86.0814 320.239C85.847 319.971 85.6681 319.7 85.5445 319.428H85.423V321H82.7384ZM85.4039 316.091C85.4039 316.675 85.4848 317.184 85.6468 317.619C85.8087 318.053 86.0431 318.392 86.3499 318.635C86.6567 318.874 87.0296 318.993 87.4685 318.993C87.9117 318.993 88.2867 318.871 88.5935 318.629C88.9003 318.381 89.1325 318.04 89.2902 317.606C89.4521 317.167 89.5331 316.662 89.5331 316.091C89.5331 315.524 89.4543 315.026 89.2966 314.595C89.1389 314.165 88.9067 313.828 88.5999 313.585C88.2931 313.342 87.9159 313.221 87.4685 313.221C87.0253 313.221 86.6503 313.338 86.3435 313.572C86.0409 313.807 85.8087 314.139 85.6468 314.57C85.4848 315 85.4039 315.507 85.4039 316.091ZM96.8536 307.909V321H94.1306V307.909H96.8536ZM103.509 321.192C102.499 321.192 101.63 320.987 100.901 320.578C100.177 320.165 99.6187 319.581 99.2267 318.827C98.8346 318.068 98.6386 317.171 98.6386 316.136C98.6386 315.126 98.8346 314.239 99.2267 313.477C99.6187 312.714 100.171 312.119 100.882 311.693C101.598 311.267 102.438 311.054 103.401 311.054C104.048 311.054 104.651 311.158 105.21 311.367C105.772 311.572 106.262 311.881 106.68 312.294C107.102 312.707 107.43 313.227 107.664 313.854C107.899 314.476 108.016 315.205 108.016 316.04V316.788H99.7252V315.1H105.453C105.453 314.708 105.367 314.361 105.197 314.058C105.026 313.756 104.79 313.519 104.487 313.349C104.189 313.174 103.842 313.087 103.445 313.087C103.032 313.087 102.666 313.183 102.346 313.374C102.031 313.562 101.783 313.815 101.604 314.135C101.426 314.45 101.334 314.802 101.33 315.19V316.794C101.33 317.28 101.419 317.7 101.598 318.053C101.781 318.407 102.039 318.68 102.372 318.871C102.704 319.063 103.098 319.159 103.554 319.159C103.857 319.159 104.134 319.116 104.385 319.031C104.636 318.946 104.852 318.818 105.031 318.648C105.21 318.477 105.346 318.268 105.44 318.021L107.958 318.188C107.83 318.793 107.568 319.321 107.172 319.773C106.78 320.22 106.273 320.57 105.651 320.821C105.033 321.068 104.319 321.192 103.509 321.192ZM116.682 307.909V321H113.959V307.909H116.682ZM123.299 321.192C122.306 321.192 121.448 320.981 120.723 320.559C120.003 320.133 119.447 319.54 119.055 318.782C118.663 318.019 118.467 317.135 118.467 316.129C118.467 315.115 118.663 314.229 119.055 313.47C119.447 312.707 120.003 312.115 120.723 311.693C121.448 311.267 122.306 311.054 123.299 311.054C124.292 311.054 125.149 311.267 125.869 311.693C126.593 312.115 127.151 312.707 127.543 313.47C127.935 314.229 128.131 315.115 128.131 316.129C128.131 317.135 127.935 318.019 127.543 318.782C127.151 319.54 126.593 320.133 125.869 320.559C125.149 320.981 124.292 321.192 123.299 321.192ZM123.312 319.082C123.764 319.082 124.141 318.955 124.443 318.699C124.746 318.439 124.974 318.085 125.127 317.638C125.285 317.19 125.364 316.681 125.364 316.11C125.364 315.539 125.285 315.03 125.127 314.582C124.974 314.135 124.746 313.781 124.443 313.521C124.141 313.261 123.764 313.131 123.312 313.131C122.856 313.131 122.472 313.261 122.161 313.521C121.854 313.781 121.622 314.135 121.465 314.582C121.311 315.03 121.234 315.539 121.234 316.11C121.234 316.681 121.311 317.19 121.465 317.638C121.622 318.085 121.854 318.439 122.161 318.699C122.472 318.955 122.856 319.082 123.312 319.082ZM134.338 321.192C133.332 321.192 132.467 320.979 131.743 320.553C131.023 320.122 130.469 319.526 130.081 318.763C129.698 318 129.506 317.122 129.506 316.129C129.506 315.124 129.7 314.241 130.087 313.483C130.479 312.72 131.036 312.126 131.756 311.7C132.476 311.269 133.332 311.054 134.325 311.054C135.182 311.054 135.932 311.21 136.575 311.521C137.219 311.832 137.728 312.268 138.103 312.831C138.478 313.393 138.685 314.054 138.723 314.812H136.153C136.081 314.322 135.889 313.928 135.578 313.63C135.271 313.327 134.869 313.176 134.37 313.176C133.948 313.176 133.58 313.291 133.264 313.521C132.953 313.747 132.71 314.077 132.536 314.512C132.361 314.947 132.274 315.473 132.274 316.091C132.274 316.717 132.359 317.25 132.529 317.689C132.704 318.128 132.949 318.462 133.264 318.692C133.58 318.923 133.948 319.038 134.37 319.038C134.681 319.038 134.96 318.974 135.207 318.846C135.459 318.718 135.666 318.533 135.828 318.29C135.994 318.043 136.102 317.746 136.153 317.401H138.723C138.68 318.151 138.476 318.812 138.109 319.383C137.747 319.95 137.247 320.393 136.607 320.712C135.968 321.032 135.212 321.192 134.338 321.192ZM143.266 321.185C142.64 321.185 142.082 321.077 141.592 320.859C141.101 320.638 140.714 320.312 140.428 319.881C140.147 319.447 140.006 318.906 140.006 318.258C140.006 317.712 140.106 317.254 140.307 316.884C140.507 316.513 140.78 316.214 141.125 315.989C141.47 315.763 141.862 315.592 142.301 315.477C142.744 315.362 143.209 315.281 143.695 315.234C144.266 315.175 144.726 315.119 145.075 315.068C145.425 315.013 145.678 314.932 145.836 314.825C145.994 314.719 146.072 314.561 146.072 314.352V314.314C146.072 313.909 145.945 313.596 145.689 313.374C145.437 313.153 145.079 313.042 144.615 313.042C144.125 313.042 143.735 313.151 143.445 313.368C143.155 313.581 142.964 313.849 142.87 314.173L140.351 313.969C140.479 313.372 140.731 312.857 141.106 312.422C141.481 311.983 141.964 311.646 142.557 311.412C143.153 311.173 143.844 311.054 144.628 311.054C145.173 311.054 145.695 311.118 146.194 311.246C146.697 311.374 147.142 311.572 147.53 311.84C147.922 312.109 148.231 312.454 148.457 312.876C148.682 313.293 148.795 313.794 148.795 314.378V321H146.213V319.638H146.136C145.979 319.945 145.768 320.216 145.503 320.45C145.239 320.68 144.922 320.862 144.551 320.994C144.18 321.121 143.752 321.185 143.266 321.185ZM144.046 319.306C144.447 319.306 144.8 319.227 145.107 319.07C145.414 318.908 145.655 318.69 145.829 318.418C146.004 318.145 146.092 317.836 146.092 317.491V316.449C146.006 316.504 145.889 316.555 145.74 316.602C145.595 316.645 145.431 316.685 145.248 316.724C145.065 316.758 144.881 316.79 144.698 316.82C144.515 316.845 144.349 316.869 144.199 316.89C143.88 316.937 143.601 317.011 143.362 317.114C143.123 317.216 142.938 317.354 142.806 317.529C142.674 317.7 142.608 317.913 142.608 318.168C142.608 318.539 142.742 318.822 143.011 319.018C143.283 319.21 143.628 319.306 144.046 319.306ZM156.13 311.182V313.227H150.218V311.182H156.13ZM151.56 308.83H154.283V317.983C154.283 318.234 154.321 318.43 154.398 318.571C154.475 318.707 154.581 318.803 154.718 318.859C154.858 318.914 155.02 318.942 155.203 318.942C155.331 318.942 155.459 318.931 155.587 318.91C155.715 318.884 155.813 318.865 155.881 318.852L156.309 320.879C156.173 320.921 155.981 320.97 155.734 321.026C155.487 321.085 155.186 321.121 154.833 321.134C154.176 321.16 153.601 321.072 153.107 320.872C152.617 320.672 152.235 320.361 151.963 319.939C151.69 319.517 151.556 318.984 151.56 318.341V308.83ZM157.904 321V311.182H160.627V321H157.904ZM159.272 309.916C158.867 309.916 158.52 309.782 158.23 309.513C157.945 309.241 157.802 308.915 157.802 308.536C157.802 308.161 157.945 307.839 158.23 307.57C158.52 307.298 158.867 307.161 159.272 307.161C159.677 307.161 160.022 307.298 160.307 307.57C160.597 307.839 160.742 308.161 160.742 308.536C160.742 308.915 160.597 309.241 160.307 309.513C160.022 309.782 159.677 309.916 159.272 309.916ZM167.244 321.192C166.252 321.192 165.393 320.981 164.668 320.559C163.948 320.133 163.392 319.54 163 318.782C162.608 318.019 162.412 317.135 162.412 316.129C162.412 315.115 162.608 314.229 163 313.47C163.392 312.707 163.948 312.115 164.668 311.693C165.393 311.267 166.252 311.054 167.244 311.054C168.237 311.054 169.094 311.267 169.814 311.693C170.538 312.115 171.097 312.707 171.489 313.47C171.881 314.229 172.077 315.115 172.077 316.129C172.077 317.135 171.881 318.019 171.489 318.782C171.097 319.54 170.538 320.133 169.814 320.559C169.094 320.981 168.237 321.192 167.244 321.192ZM167.257 319.082C167.709 319.082 168.086 318.955 168.389 318.699C168.691 318.439 168.919 318.085 169.073 317.638C169.23 317.19 169.309 316.681 169.309 316.11C169.309 315.539 169.23 315.03 169.073 314.582C168.919 314.135 168.691 313.781 168.389 313.521C168.086 313.261 167.709 313.131 167.257 313.131C166.801 313.131 166.418 313.261 166.107 313.521C165.8 313.781 165.568 314.135 165.41 314.582C165.256 315.03 165.18 315.539 165.18 316.11C165.18 316.681 165.256 317.19 165.41 317.638C165.568 318.085 165.8 318.439 166.107 318.699C166.418 318.955 166.801 319.082 167.257 319.082ZM176.57 315.324V321H173.847V311.182H176.443V312.914H176.558C176.775 312.343 177.139 311.891 177.651 311.559C178.162 311.222 178.782 311.054 179.511 311.054C180.193 311.054 180.787 311.203 181.294 311.501C181.801 311.8 182.195 312.226 182.477 312.78C182.758 313.33 182.899 313.986 182.899 314.749V321H180.176V315.234C180.18 314.634 180.026 314.165 179.715 313.828C179.404 313.487 178.976 313.317 178.43 313.317C178.064 313.317 177.74 313.396 177.459 313.553C177.182 313.711 176.965 313.941 176.807 314.244C176.653 314.542 176.575 314.902 176.57 315.324ZM197.38 313.982L194.887 314.135C194.844 313.922 194.753 313.73 194.612 313.56C194.471 313.385 194.286 313.246 194.056 313.144C193.83 313.038 193.559 312.984 193.244 312.984C192.822 312.984 192.466 313.074 192.177 313.253C191.887 313.428 191.742 313.662 191.742 313.956C191.742 314.19 191.836 314.388 192.023 314.55C192.211 314.712 192.532 314.842 192.988 314.94L194.765 315.298C195.72 315.494 196.432 315.81 196.9 316.244C197.369 316.679 197.603 317.25 197.603 317.957C197.603 318.601 197.414 319.165 197.035 319.651C196.66 320.137 196.144 320.516 195.488 320.789C194.836 321.058 194.084 321.192 193.231 321.192C191.932 321.192 190.896 320.921 190.125 320.38C189.358 319.835 188.908 319.093 188.776 318.156L191.454 318.015C191.535 318.411 191.731 318.714 192.042 318.923C192.353 319.127 192.752 319.229 193.238 319.229C193.715 319.229 194.098 319.138 194.388 318.955C194.682 318.767 194.831 318.526 194.836 318.232C194.831 317.985 194.727 317.783 194.522 317.625C194.318 317.463 194.003 317.339 193.576 317.254L191.876 316.915C190.917 316.724 190.204 316.391 189.735 315.918C189.27 315.445 189.038 314.842 189.038 314.109C189.038 313.479 189.209 312.935 189.549 312.479C189.895 312.023 190.378 311.672 191 311.425C191.627 311.178 192.36 311.054 193.199 311.054C194.439 311.054 195.415 311.316 196.127 311.84C196.843 312.364 197.26 313.078 197.38 313.982ZM203.793 321.192C202.783 321.192 201.913 320.987 201.185 320.578C200.46 320.165 199.902 319.581 199.51 318.827C199.118 318.068 198.922 317.171 198.922 316.136C198.922 315.126 199.118 314.239 199.51 313.477C199.902 312.714 200.454 312.119 201.165 311.693C201.881 311.267 202.721 311.054 203.684 311.054C204.332 311.054 204.935 311.158 205.493 311.367C206.055 311.572 206.545 311.881 206.963 312.294C207.385 312.707 207.713 313.227 207.947 313.854C208.182 314.476 208.299 315.205 208.299 316.04V316.788H200.008V315.1H205.736C205.736 314.708 205.65 314.361 205.48 314.058C205.31 313.756 205.073 313.519 204.771 313.349C204.472 313.174 204.125 313.087 203.729 313.087C203.315 313.087 202.949 313.183 202.629 313.374C202.314 313.562 202.067 313.815 201.888 314.135C201.709 314.45 201.617 314.802 201.613 315.19V316.794C201.613 317.28 201.702 317.7 201.881 318.053C202.065 318.407 202.322 318.68 202.655 318.871C202.987 319.063 203.381 319.159 203.837 319.159C204.14 319.159 204.417 319.116 204.668 319.031C204.92 318.946 205.135 318.818 205.314 318.648C205.493 318.477 205.629 318.268 205.723 318.021L208.241 318.188C208.114 318.793 207.851 319.321 207.455 319.773C207.063 320.22 206.556 320.57 205.934 320.821C205.316 321.068 204.602 321.192 203.793 321.192ZM210.076 321V311.182H212.716V312.895H212.818C212.997 312.286 213.297 311.825 213.719 311.514C214.141 311.199 214.627 311.041 215.177 311.041C215.313 311.041 215.46 311.05 215.618 311.067C215.775 311.084 215.914 311.107 216.033 311.137V313.553C215.905 313.515 215.729 313.481 215.503 313.451C215.277 313.421 215.07 313.406 214.883 313.406C214.482 313.406 214.124 313.494 213.809 313.668C213.498 313.839 213.251 314.077 213.067 314.384C212.888 314.691 212.799 315.045 212.799 315.445V321H210.076ZM226.893 311.182L223.461 321H220.393L216.96 311.182H219.837L221.876 318.207H221.978L224.011 311.182H226.893ZM228.287 321V311.182H231.01V321H228.287ZM229.655 309.916C229.25 309.916 228.903 309.782 228.613 309.513C228.327 309.241 228.185 308.915 228.185 308.536C228.185 308.161 228.327 307.839 228.613 307.57C228.903 307.298 229.25 307.161 229.655 307.161C230.06 307.161 230.405 307.298 230.69 307.57C230.98 307.839 231.125 308.161 231.125 308.536C231.125 308.915 230.98 309.241 230.69 309.513C230.405 309.782 230.06 309.916 229.655 309.916ZM237.627 321.192C236.622 321.192 235.756 320.979 235.032 320.553C234.312 320.122 233.758 319.526 233.37 318.763C232.987 318 232.795 317.122 232.795 316.129C232.795 315.124 232.989 314.241 233.377 313.483C233.769 312.72 234.325 312.126 235.045 311.7C235.765 311.269 236.622 311.054 237.614 311.054C238.471 311.054 239.221 311.21 239.864 311.521C240.508 311.832 241.017 312.268 241.392 312.831C241.767 313.393 241.974 314.054 242.012 314.812H239.443C239.37 314.322 239.178 313.928 238.867 313.63C238.56 313.327 238.158 313.176 237.659 313.176C237.237 313.176 236.869 313.291 236.553 313.521C236.242 313.747 235.999 314.077 235.825 314.512C235.65 314.947 235.563 315.473 235.563 316.091C235.563 316.717 235.648 317.25 235.818 317.689C235.993 318.128 236.238 318.462 236.553 318.692C236.869 318.923 237.237 319.038 237.659 319.038C237.97 319.038 238.249 318.974 238.497 318.846C238.748 318.718 238.955 318.533 239.117 318.29C239.283 318.043 239.391 317.746 239.443 317.401H242.012C241.97 318.151 241.765 318.812 241.399 319.383C241.036 319.95 240.536 320.393 239.896 320.712C239.257 321.032 238.501 321.192 237.627 321.192ZM248.23 321.192C247.22 321.192 246.351 320.987 245.622 320.578C244.898 320.165 244.339 319.581 243.947 318.827C243.555 318.068 243.359 317.171 243.359 316.136C243.359 315.126 243.555 314.239 243.947 313.477C244.339 312.714 244.891 312.119 245.603 311.693C246.319 311.267 247.158 311.054 248.121 311.054C248.769 311.054 249.372 311.158 249.93 311.367C250.493 311.572 250.983 311.881 251.4 312.294C251.822 312.707 252.15 313.227 252.385 313.854C252.619 314.476 252.736 315.205 252.736 316.04V316.788H244.446V315.1H250.173C250.173 314.708 250.088 314.361 249.918 314.058C249.747 313.756 249.511 313.519 249.208 313.349C248.91 313.174 248.562 313.087 248.166 313.087C247.753 313.087 247.386 313.183 247.067 313.374C246.751 313.562 246.504 313.815 246.325 314.135C246.146 314.45 246.055 314.802 246.05 315.19V316.794C246.05 317.28 246.14 317.7 246.319 318.053C246.502 318.407 246.76 318.68 247.092 318.871C247.425 319.063 247.819 319.159 248.275 319.159C248.577 319.159 248.854 319.116 249.106 319.031C249.357 318.946 249.572 318.818 249.751 318.648C249.93 318.477 250.067 318.268 250.16 318.021L252.679 318.188C252.551 318.793 252.289 319.321 251.893 319.773C251.501 320.22 250.994 320.57 250.371 320.821C249.753 321.068 249.04 321.192 248.23 321.192ZM262.682 313.982L260.19 314.135C260.147 313.922 260.055 313.73 259.915 313.56C259.774 313.385 259.589 313.246 259.359 313.144C259.133 313.038 258.862 312.984 258.547 312.984C258.125 312.984 257.769 313.074 257.479 313.253C257.19 313.428 257.045 313.662 257.045 313.956C257.045 314.19 257.138 314.388 257.326 314.55C257.513 314.712 257.835 314.842 258.291 314.94L260.068 315.298C261.023 315.494 261.734 315.81 262.203 316.244C262.672 316.679 262.906 317.25 262.906 317.957C262.906 318.601 262.717 319.165 262.337 319.651C261.962 320.137 261.447 320.516 260.79 320.789C260.138 321.058 259.386 321.192 258.534 321.192C257.234 321.192 256.199 320.921 255.427 320.38C254.66 319.835 254.211 319.093 254.079 318.156L256.757 318.015C256.838 318.411 257.034 318.714 257.345 318.923C257.656 319.127 258.055 319.229 258.54 319.229C259.018 319.229 259.401 319.138 259.691 318.955C259.985 318.767 260.134 318.526 260.138 318.232C260.134 317.985 260.03 317.783 259.825 317.625C259.621 317.463 259.305 317.339 258.879 317.254L257.179 316.915C256.22 316.724 255.506 316.391 255.038 315.918C254.573 315.445 254.341 314.842 254.341 314.109C254.341 313.479 254.511 312.935 254.852 312.479C255.197 312.023 255.681 311.672 256.303 311.425C256.93 311.178 257.663 311.054 258.502 311.054C259.742 311.054 260.718 311.316 261.43 311.84C262.146 312.364 262.563 313.078 262.682 313.982ZM274.067 311.182V313.227H268.007V311.182H274.067ZM269.394 321V310.472C269.394 309.761 269.533 309.17 269.81 308.702C270.091 308.233 270.474 307.881 270.96 307.647C271.446 307.413 271.998 307.295 272.616 307.295C273.033 307.295 273.415 307.327 273.76 307.391C274.109 307.455 274.369 307.513 274.54 307.564L274.054 309.609C273.947 309.575 273.815 309.543 273.658 309.513C273.504 309.484 273.347 309.469 273.185 309.469C272.784 309.469 272.505 309.562 272.347 309.75C272.19 309.933 272.111 310.191 272.111 310.523V321H269.394ZM279.815 321.192C278.822 321.192 277.963 320.981 277.239 320.559C276.519 320.133 275.962 319.54 275.57 318.782C275.178 318.019 274.982 317.135 274.982 316.129C274.982 315.115 275.178 314.229 275.57 313.47C275.962 312.707 276.519 312.115 277.239 311.693C277.963 311.267 278.822 311.054 279.815 311.054C280.808 311.054 281.664 311.267 282.384 311.693C283.109 312.115 283.667 312.707 284.059 313.47C284.451 314.229 284.647 315.115 284.647 316.129C284.647 317.135 284.451 318.019 284.059 318.782C283.667 319.54 283.109 320.133 282.384 320.559C281.664 320.981 280.808 321.192 279.815 321.192ZM279.828 319.082C280.279 319.082 280.656 318.955 280.959 318.699C281.261 318.439 281.489 318.085 281.643 317.638C281.801 317.19 281.879 316.681 281.879 316.11C281.879 315.539 281.801 315.03 281.643 314.582C281.489 314.135 281.261 313.781 280.959 313.521C280.656 313.261 280.279 313.131 279.828 313.131C279.372 313.131 278.988 313.261 278.677 313.521C278.37 313.781 278.138 314.135 277.98 314.582C277.827 315.03 277.75 315.539 277.75 316.11C277.75 316.681 277.827 317.19 277.98 317.638C278.138 318.085 278.37 318.439 278.677 318.699C278.988 318.955 279.372 319.082 279.828 319.082ZM286.418 321V311.182H289.058V312.895H289.16C289.339 312.286 289.639 311.825 290.061 311.514C290.483 311.199 290.969 311.041 291.519 311.041C291.655 311.041 291.802 311.05 291.96 311.067C292.117 311.084 292.256 311.107 292.375 311.137V313.553C292.247 313.515 292.07 313.481 291.845 313.451C291.619 313.421 291.412 313.406 291.225 313.406C290.824 313.406 290.466 313.494 290.151 313.668C289.84 313.839 289.592 314.077 289.409 314.384C289.23 314.691 289.141 315.045 289.141 315.445V321H286.418ZM303.171 311.182V313.227H297.259V311.182H303.171ZM298.601 308.83H301.324V317.983C301.324 318.234 301.362 318.43 301.439 318.571C301.516 318.707 301.622 318.803 301.759 318.859C301.899 318.914 302.061 318.942 302.244 318.942C302.372 318.942 302.5 318.931 302.628 318.91C302.756 318.884 302.854 318.865 302.922 318.852L303.35 320.879C303.214 320.921 303.022 320.97 302.775 321.026C302.528 321.085 302.227 321.121 301.874 321.134C301.217 321.16 300.642 321.072 300.148 320.872C299.658 320.672 299.276 320.361 299.004 319.939C298.731 319.517 298.597 318.984 298.601 318.341V308.83ZM307.879 315.324V321H305.156V307.909H307.802V312.914H307.917C308.139 312.335 308.497 311.881 308.991 311.553C309.486 311.22 310.106 311.054 310.851 311.054C311.533 311.054 312.128 311.203 312.635 311.501C313.146 311.795 313.542 312.219 313.824 312.773C314.109 313.323 314.25 313.982 314.245 314.749V321H311.522V315.234C311.527 314.629 311.373 314.158 311.062 313.822C310.755 313.485 310.325 313.317 309.771 313.317C309.4 313.317 309.072 313.396 308.787 313.553C308.505 313.711 308.284 313.941 308.122 314.244C307.964 314.542 307.883 314.902 307.879 315.324ZM320.863 321.192C319.853 321.192 318.984 320.987 318.255 320.578C317.53 320.165 316.972 319.581 316.58 318.827C316.188 318.068 315.992 317.171 315.992 316.136C315.992 315.126 316.188 314.239 316.58 313.477C316.972 312.714 317.524 312.119 318.236 311.693C318.952 311.267 319.791 311.054 320.754 311.054C321.402 311.054 322.005 311.158 322.563 311.367C323.126 311.572 323.616 311.881 324.033 312.294C324.455 312.707 324.783 313.227 325.018 313.854C325.252 314.476 325.369 315.205 325.369 316.04V316.788H317.079V315.1H322.806C322.806 314.708 322.721 314.361 322.55 314.058C322.38 313.756 322.143 313.519 321.841 313.349C321.543 313.174 321.195 313.087 320.799 313.087C320.386 313.087 320.019 313.183 319.699 313.374C319.384 313.562 319.137 313.815 318.958 314.135C318.779 314.45 318.687 314.802 318.683 315.19V316.794C318.683 317.28 318.773 317.7 318.952 318.053C319.135 318.407 319.393 318.68 319.725 318.871C320.057 319.063 320.452 319.159 320.908 319.159C321.21 319.159 321.487 319.116 321.739 319.031C321.99 318.946 322.205 318.818 322.384 318.648C322.563 318.477 322.699 318.268 322.793 318.021L325.312 318.188C325.184 318.793 324.922 319.321 324.525 319.773C324.133 320.22 323.626 320.57 323.004 320.821C322.386 321.068 321.672 321.192 320.863 321.192ZM57.7303 342.982L55.2374 343.135C55.1948 342.922 55.1032 342.73 54.9625 342.56C54.8219 342.385 54.6365 342.246 54.4064 342.144C54.1806 342.038 53.91 341.984 53.5946 341.984C53.1728 341.984 52.8169 342.074 52.5272 342.253C52.2374 342.428 52.0925 342.662 52.0925 342.956C52.0925 343.19 52.1863 343.388 52.3738 343.55C52.5613 343.712 52.883 343.842 53.339 343.94L55.1159 344.298C56.0705 344.494 56.7821 344.81 57.2509 345.244C57.7196 345.679 57.954 346.25 57.954 346.957C57.954 347.601 57.7644 348.165 57.3851 348.651C57.0101 349.137 56.4945 349.516 55.8382 349.789C55.1863 350.058 54.4341 350.192 53.5819 350.192C52.2821 350.192 51.2466 349.921 50.4753 349.38C49.7083 348.835 49.2587 348.093 49.1266 347.156L51.8049 347.015C51.8858 347.411 52.0819 347.714 52.3929 347.923C52.704 348.127 53.1025 348.229 53.5882 348.229C54.0655 348.229 54.449 348.138 54.7388 347.955C55.0328 347.767 55.182 347.526 55.1863 347.232C55.182 346.985 55.0776 346.783 54.873 346.625C54.6685 346.463 54.3532 346.339 53.927 346.254L52.2267 345.915C51.2679 345.724 50.5542 345.391 50.0854 344.918C49.6209 344.445 49.3887 343.842 49.3887 343.109C49.3887 342.479 49.5591 341.935 49.9 341.479C50.2452 341.023 50.7289 340.672 51.351 340.425C51.9775 340.178 52.7104 340.054 53.5499 340.054C54.79 340.054 55.7658 340.316 56.4775 340.84C57.1934 341.364 57.611 342.078 57.7303 342.982ZM64.1431 350.192C63.1332 350.192 62.2638 349.987 61.5352 349.578C60.8107 349.165 60.2525 348.581 59.8604 347.827C59.4684 347.068 59.2724 346.171 59.2724 345.136C59.2724 344.126 59.4684 343.239 59.8604 342.477C60.2525 341.714 60.8043 341.119 61.516 340.693C62.2319 340.267 63.0714 340.054 64.0344 340.054C64.6822 340.054 65.2852 340.158 65.8434 340.367C66.4059 340.572 66.896 340.881 67.3136 341.294C67.7354 341.707 68.0636 342.227 68.2979 342.854C68.5323 343.476 68.6495 344.205 68.6495 345.04V345.788H60.359V344.1H66.0863C66.0863 343.708 66.0011 343.361 65.8306 343.058C65.6602 342.756 65.4237 342.519 65.1211 342.349C64.8228 342.174 64.4755 342.087 64.0792 342.087C63.6658 342.087 63.2994 342.183 62.9798 342.374C62.6644 342.562 62.4173 342.815 62.2383 343.135C62.0593 343.45 61.9677 343.802 61.9634 344.19V345.794C61.9634 346.28 62.0529 346.7 62.2319 347.053C62.4151 347.407 62.6729 347.68 63.0053 347.871C63.3377 348.063 63.7319 348.159 64.1879 348.159C64.4904 348.159 64.7674 348.116 65.0188 348.031C65.2702 347.946 65.4854 347.818 65.6644 347.648C65.8434 347.477 65.9798 347.268 66.0735 347.021L68.592 347.188C68.4641 347.793 68.2021 348.321 67.8058 348.773C67.4137 349.22 66.9066 349.57 66.2844 349.821C65.6665 350.068 64.9528 350.192 64.1431 350.192ZM73.1495 336.909V350H70.4265V336.909H73.1495ZM79.8052 350.192C78.7953 350.192 77.926 349.987 77.1973 349.578C76.4728 349.165 75.9146 348.581 75.5225 347.827C75.1305 347.068 74.9345 346.171 74.9345 345.136C74.9345 344.126 75.1305 343.239 75.5225 342.477C75.9146 341.714 76.4664 341.119 77.1781 340.693C77.894 340.267 78.7335 340.054 79.6966 340.054C80.3443 340.054 80.9473 340.158 81.5055 340.367C82.068 340.572 82.5581 340.881 82.9757 341.294C83.3976 341.707 83.7257 342.227 83.9601 342.854C84.1944 343.476 84.3116 344.205 84.3116 345.04V345.788H76.0211V344.1H81.7484C81.7484 343.708 81.6632 343.361 81.4927 343.058C81.3223 342.756 81.0858 342.519 80.7832 342.349C80.4849 342.174 80.1376 342.087 79.7413 342.087C79.3279 342.087 78.9615 342.183 78.6419 342.374C78.3265 342.562 78.0794 342.815 77.9004 343.135C77.7214 343.45 77.6298 343.802 77.6255 344.19V345.794C77.6255 346.28 77.715 346.7 77.894 347.053C78.0772 347.407 78.335 347.68 78.6674 347.871C78.9998 348.063 79.394 348.159 79.85 348.159C80.1525 348.159 80.4295 348.116 80.6809 348.031C80.9324 347.946 81.1475 347.818 81.3265 347.648C81.5055 347.477 81.6419 347.268 81.7356 347.021L84.2541 347.188C84.1262 347.793 83.8642 348.321 83.4679 348.773C83.0758 349.22 82.5687 349.57 81.9466 349.821C81.3287 350.068 80.6149 350.192 79.8052 350.192ZM90.5247 350.192C89.519 350.192 88.6539 349.979 87.9295 349.553C87.2093 349.122 86.6554 348.526 86.2676 347.763C85.8841 347 85.6923 346.122 85.6923 345.129C85.6923 344.124 85.8862 343.241 86.274 342.483C86.666 341.72 87.2221 341.126 87.9423 340.7C88.6625 340.269 89.519 340.054 90.5119 340.054C91.3684 340.054 92.1184 340.21 92.7619 340.521C93.4054 340.832 93.9146 341.268 94.2896 341.831C94.6646 342.393 94.8713 343.054 94.9096 343.812H92.34C92.2676 343.322 92.0758 342.928 91.7647 342.63C91.4579 342.327 91.0552 342.176 90.5566 342.176C90.1348 342.176 89.7662 342.291 89.4508 342.521C89.1397 342.747 88.8968 343.077 88.7221 343.512C88.5474 343.947 88.46 344.473 88.46 345.091C88.46 345.717 88.5453 346.25 88.7157 346.689C88.8904 347.128 89.1355 347.462 89.4508 347.692C89.7662 347.923 90.1348 348.038 90.5566 348.038C90.8677 348.038 91.1468 347.974 91.394 347.846C91.6454 347.718 91.8521 347.533 92.014 347.29C92.1802 347.043 92.2889 346.746 92.34 346.401H94.9096C94.867 347.151 94.6625 347.812 94.296 348.383C93.9338 348.95 93.4331 349.393 92.7939 349.712C92.1547 350.032 91.3983 350.192 90.5247 350.192ZM101.875 340.182V342.227H95.9627V340.182H101.875ZM97.305 337.83H100.028V346.983C100.028 347.234 100.066 347.43 100.143 347.571C100.22 347.707 100.326 347.803 100.463 347.859C100.603 347.914 100.765 347.942 100.949 347.942C101.076 347.942 101.204 347.931 101.332 347.91C101.46 347.884 101.558 347.865 101.626 347.852L102.054 349.879C101.918 349.921 101.726 349.97 101.479 350.026C101.232 350.085 100.931 350.121 100.578 350.134C99.9215 350.16 99.3462 350.072 98.8519 349.872C98.3619 349.672 97.9805 349.361 97.7077 348.939C97.435 348.517 97.3008 347.984 97.305 347.341V337.83ZM108.018 350.192C107.008 350.192 106.139 349.987 105.41 349.578C104.686 349.165 104.127 348.581 103.735 347.827C103.343 347.068 103.147 346.171 103.147 345.136C103.147 344.126 103.343 343.239 103.735 342.477C104.127 341.714 104.679 341.119 105.391 340.693C106.107 340.267 106.946 340.054 107.909 340.054C108.557 340.054 109.16 340.158 109.718 340.367C110.281 340.572 110.771 340.881 111.189 341.294C111.61 341.707 111.939 342.227 112.173 342.854C112.407 343.476 112.525 344.205 112.525 345.04V345.788H104.234V344.1H109.961C109.961 343.708 109.876 343.361 109.706 343.058C109.535 342.756 109.299 342.519 108.996 342.349C108.698 342.174 108.35 342.087 107.954 342.087C107.541 342.087 107.174 342.183 106.855 342.374C106.539 342.562 106.292 342.815 106.113 343.135C105.934 343.45 105.843 343.802 105.838 344.19V345.794C105.838 346.28 105.928 346.7 106.107 347.053C106.29 347.407 106.548 347.68 106.88 347.871C107.213 348.063 107.607 348.159 108.063 348.159C108.365 348.159 108.642 348.116 108.894 348.031C109.145 347.946 109.36 347.818 109.539 347.648C109.718 347.477 109.855 347.268 109.949 347.021L112.467 347.188C112.339 347.793 112.077 348.321 111.681 348.773C111.289 349.22 110.782 349.57 110.159 349.821C109.542 350.068 108.828 350.192 108.018 350.192ZM117.919 350.16C117.174 350.16 116.498 349.968 115.893 349.585C115.292 349.197 114.815 348.628 114.461 347.878C114.112 347.124 113.937 346.199 113.937 345.104C113.937 343.979 114.118 343.043 114.48 342.298C114.843 341.548 115.324 340.987 115.925 340.616C116.53 340.241 117.193 340.054 117.913 340.054C118.463 340.054 118.921 340.148 119.287 340.335C119.658 340.518 119.956 340.749 120.182 341.026C120.412 341.298 120.587 341.567 120.706 341.831H120.789V336.909H123.506V350H120.821V348.428H120.706C120.578 348.7 120.397 348.971 120.163 349.239C119.933 349.504 119.632 349.723 119.262 349.898C118.895 350.072 118.448 350.16 117.919 350.16ZM118.782 347.993C119.221 347.993 119.592 347.874 119.895 347.635C120.201 347.392 120.436 347.053 120.598 346.619C120.764 346.184 120.847 345.675 120.847 345.091C120.847 344.507 120.766 344 120.604 343.57C120.442 343.139 120.208 342.807 119.901 342.572C119.594 342.338 119.221 342.221 118.782 342.221C118.335 342.221 117.958 342.342 117.651 342.585C117.344 342.828 117.112 343.165 116.954 343.595C116.797 344.026 116.718 344.524 116.718 345.091C116.718 345.662 116.797 346.167 116.954 346.606C117.116 347.04 117.348 347.381 117.651 347.629C117.958 347.871 118.335 347.993 118.782 347.993ZM133.529 350.16C132.783 350.16 132.108 349.968 131.502 349.585C130.902 349.197 130.424 348.628 130.071 347.878C129.721 347.124 129.547 346.199 129.547 345.104C129.547 343.979 129.728 343.043 130.09 342.298C130.452 341.548 130.934 340.987 131.534 340.616C132.14 340.241 132.802 340.054 133.522 340.054C134.072 340.054 134.53 340.148 134.897 340.335C135.267 340.518 135.566 340.749 135.792 341.026C136.022 341.298 136.196 341.567 136.316 341.831H136.399V336.909H139.115V350H136.431V348.428H136.316C136.188 348.7 136.007 348.971 135.772 349.239C135.542 349.504 135.242 349.723 134.871 349.898C134.505 350.072 134.057 350.16 133.529 350.16ZM134.392 347.993C134.831 347.993 135.201 347.874 135.504 347.635C135.811 347.392 136.045 347.053 136.207 346.619C136.373 346.184 136.456 345.675 136.456 345.091C136.456 344.507 136.375 344 136.213 343.57C136.051 343.139 135.817 342.807 135.51 342.572C135.203 342.338 134.831 342.221 134.392 342.221C133.944 342.221 133.567 342.342 133.26 342.585C132.953 342.828 132.721 343.165 132.564 343.595C132.406 344.026 132.327 344.524 132.327 345.091C132.327 345.662 132.406 346.167 132.564 346.606C132.725 347.04 132.958 347.381 133.26 347.629C133.567 347.871 133.944 347.993 134.392 347.993ZM145.829 350.192C144.819 350.192 143.949 349.987 143.221 349.578C142.496 349.165 141.938 348.581 141.546 347.827C141.154 347.068 140.958 346.171 140.958 345.136C140.958 344.126 141.154 343.239 141.546 342.477C141.938 341.714 142.49 341.119 143.202 340.693C143.917 340.267 144.757 340.054 145.72 340.054C146.368 340.054 146.971 340.158 147.529 340.367C148.091 340.572 148.581 340.881 148.999 341.294C149.421 341.707 149.749 342.227 149.983 342.854C150.218 343.476 150.335 344.205 150.335 345.04V345.788H142.045V344.1H147.772C147.772 343.708 147.687 343.361 147.516 343.058C147.346 342.756 147.109 342.519 146.807 342.349C146.508 342.174 146.161 342.087 145.765 342.087C145.351 342.087 144.985 342.183 144.665 342.374C144.35 342.562 144.103 342.815 143.924 343.135C143.745 343.45 143.653 343.802 143.649 344.19V345.794C143.649 346.28 143.738 346.7 143.917 347.053C144.101 347.407 144.358 347.68 144.691 347.871C145.023 348.063 145.417 348.159 145.873 348.159C146.176 348.159 146.453 348.116 146.704 348.031C146.956 347.946 147.171 347.818 147.35 347.648C147.529 347.477 147.665 347.268 147.759 347.021L150.278 347.188C150.15 347.793 149.888 348.321 149.491 348.773C149.099 349.22 148.592 349.57 147.97 349.821C147.352 350.068 146.638 350.192 145.829 350.192ZM160.281 342.982L157.788 343.135C157.746 342.922 157.654 342.73 157.513 342.56C157.373 342.385 157.187 342.246 156.957 342.144C156.731 342.038 156.461 341.984 156.145 341.984C155.724 341.984 155.368 342.074 155.078 342.253C154.788 342.428 154.643 342.662 154.643 342.956C154.643 343.19 154.737 343.388 154.925 343.55C155.112 343.712 155.434 343.842 155.89 343.94L157.667 344.298C158.621 344.494 159.333 344.81 159.802 345.244C160.27 345.679 160.505 346.25 160.505 346.957C160.505 347.601 160.315 348.165 159.936 348.651C159.561 349.137 159.045 349.516 158.389 349.789C157.737 350.058 156.985 350.192 156.133 350.192C154.833 350.192 153.797 349.921 153.026 349.38C152.259 348.835 151.809 348.093 151.677 347.156L154.356 347.015C154.437 347.411 154.633 347.714 154.944 347.923C155.255 348.127 155.653 348.229 156.139 348.229C156.616 348.229 157 348.138 157.29 347.955C157.584 347.767 157.733 347.526 157.737 347.232C157.733 346.985 157.628 346.783 157.424 346.625C157.219 346.463 156.904 346.339 156.478 346.254L154.778 345.915C153.819 345.724 153.105 345.391 152.636 344.918C152.172 344.445 151.939 343.842 151.939 343.109C151.939 342.479 152.11 341.935 152.451 341.479C152.796 341.023 153.28 340.672 153.902 340.425C154.528 340.178 155.261 340.054 156.101 340.054C157.341 340.054 158.317 340.316 159.028 340.84C159.744 341.364 160.162 342.078 160.281 342.982ZM167.442 340.182V342.227H161.529V340.182H167.442ZM162.871 337.83H165.594V346.983C165.594 347.234 165.633 347.43 165.71 347.571C165.786 347.707 165.893 347.803 166.029 347.859C166.17 347.914 166.332 347.942 166.515 347.942C166.643 347.942 166.771 347.931 166.898 347.91C167.026 347.884 167.124 347.865 167.192 347.852L167.621 349.879C167.484 349.921 167.293 349.97 167.045 350.026C166.798 350.085 166.498 350.121 166.144 350.134C165.488 350.16 164.913 350.072 164.418 349.872C163.928 349.672 163.547 349.361 163.274 348.939C163.001 348.517 162.867 347.984 162.871 347.341V337.83ZM169.216 350V340.182H171.939V350H169.216ZM170.583 338.916C170.179 338.916 169.831 338.782 169.542 338.513C169.256 338.241 169.113 337.915 169.113 337.536C169.113 337.161 169.256 336.839 169.542 336.57C169.831 336.298 170.179 336.161 170.583 336.161C170.988 336.161 171.333 336.298 171.619 336.57C171.909 336.839 172.054 337.161 172.054 337.536C172.054 337.915 171.909 338.241 171.619 338.513C171.333 338.782 170.988 338.916 170.583 338.916ZM176.843 344.324V350H174.12V340.182H176.715V341.914H176.83C177.047 341.343 177.412 340.891 177.923 340.559C178.434 340.222 179.055 340.054 179.783 340.054C180.465 340.054 181.059 340.203 181.567 340.501C182.074 340.8 182.468 341.226 182.749 341.78C183.03 342.33 183.171 342.986 183.171 343.749V350H180.448V344.234C180.452 343.634 180.299 343.165 179.988 342.828C179.677 342.487 179.248 342.317 178.703 342.317C178.336 342.317 178.013 342.396 177.731 342.553C177.454 342.711 177.237 342.941 177.079 343.244C176.926 343.542 176.847 343.902 176.843 344.324ZM188.117 350.185C187.49 350.185 186.932 350.077 186.442 349.859C185.952 349.638 185.564 349.312 185.279 348.881C184.998 348.447 184.857 347.906 184.857 347.258C184.857 346.712 184.957 346.254 185.157 345.884C185.358 345.513 185.63 345.214 185.975 344.989C186.321 344.763 186.713 344.592 187.152 344.477C187.595 344.362 188.059 344.281 188.545 344.234C189.116 344.175 189.576 344.119 189.926 344.068C190.275 344.013 190.529 343.932 190.686 343.825C190.844 343.719 190.923 343.561 190.923 343.352V343.314C190.923 342.909 190.795 342.596 190.539 342.374C190.288 342.153 189.93 342.042 189.466 342.042C188.975 342.042 188.586 342.151 188.296 342.368C188.006 342.581 187.814 342.849 187.721 343.173L185.202 342.969C185.33 342.372 185.581 341.857 185.956 341.422C186.331 340.983 186.815 340.646 187.407 340.412C188.004 340.173 188.694 340.054 189.478 340.054C190.024 340.054 190.546 340.118 191.044 340.246C191.547 340.374 191.993 340.572 192.38 340.84C192.772 341.109 193.081 341.454 193.307 341.876C193.533 342.293 193.646 342.794 193.646 343.378V350H191.064V348.638H190.987C190.829 348.945 190.618 349.216 190.354 349.45C190.09 349.68 189.772 349.862 189.402 349.994C189.031 350.121 188.603 350.185 188.117 350.185ZM188.897 348.306C189.297 348.306 189.651 348.227 189.958 348.07C190.265 347.908 190.505 347.69 190.68 347.418C190.855 347.145 190.942 346.836 190.942 346.491V345.449C190.857 345.504 190.74 345.555 190.591 345.602C190.446 345.645 190.282 345.685 190.098 345.724C189.915 345.758 189.732 345.79 189.549 345.82C189.365 345.845 189.199 345.869 189.05 345.89C188.73 345.937 188.451 346.011 188.213 346.114C187.974 346.216 187.789 346.354 187.657 346.529C187.525 346.7 187.458 346.913 187.458 347.168C187.458 347.539 187.593 347.822 187.861 348.018C188.134 348.21 188.479 348.306 188.897 348.306ZM200.981 340.182V342.227H195.068V340.182H200.981ZM196.411 337.83H199.134V346.983C199.134 347.234 199.172 347.43 199.249 347.571C199.325 347.707 199.432 347.803 199.568 347.859C199.709 347.914 199.871 347.942 200.054 347.942C200.182 347.942 200.31 347.931 200.438 347.91C200.565 347.884 200.663 347.865 200.732 347.852L201.16 349.879C201.023 349.921 200.832 349.97 200.585 350.026C200.337 350.085 200.037 350.121 199.683 350.134C199.027 350.16 198.452 350.072 197.957 349.872C197.467 349.672 197.086 349.361 196.813 348.939C196.54 348.517 196.406 347.984 196.411 347.341V337.83ZM202.755 350V340.182H205.478V350H202.755ZM204.123 338.916C203.718 338.916 203.37 338.782 203.081 338.513C202.795 338.241 202.652 337.915 202.652 337.536C202.652 337.161 202.795 336.839 203.081 336.57C203.37 336.298 203.718 336.161 204.123 336.161C204.527 336.161 204.873 336.298 205.158 336.57C205.448 336.839 205.593 337.161 205.593 337.536C205.593 337.915 205.448 338.241 205.158 338.513C204.873 338.782 204.527 338.916 204.123 338.916ZM212.095 350.192C211.102 350.192 210.243 349.981 209.519 349.559C208.799 349.133 208.243 348.54 207.851 347.782C207.459 347.019 207.263 346.135 207.263 345.129C207.263 344.115 207.459 343.229 207.851 342.47C208.243 341.707 208.799 341.115 209.519 340.693C210.243 340.267 211.102 340.054 212.095 340.054C213.088 340.054 213.944 340.267 214.665 340.693C215.389 341.115 215.947 341.707 216.339 342.47C216.731 343.229 216.927 344.115 216.927 345.129C216.927 346.135 216.731 347.019 216.339 347.782C215.947 348.54 215.389 349.133 214.665 349.559C213.944 349.981 213.088 350.192 212.095 350.192ZM212.108 348.082C212.559 348.082 212.937 347.955 213.239 347.699C213.542 347.439 213.77 347.085 213.923 346.638C214.081 346.19 214.16 345.681 214.16 345.11C214.16 344.539 214.081 344.03 213.923 343.582C213.77 343.135 213.542 342.781 213.239 342.521C212.937 342.261 212.559 342.131 212.108 342.131C211.652 342.131 211.268 342.261 210.957 342.521C210.65 342.781 210.418 343.135 210.26 343.582C210.107 344.03 210.03 344.539 210.03 345.11C210.03 345.681 210.107 346.19 210.26 346.638C210.418 347.085 210.65 347.439 210.957 347.699C211.268 347.955 211.652 348.082 212.108 348.082ZM221.421 344.324V350H218.698V340.182H221.293V341.914H221.408C221.626 341.343 221.99 340.891 222.501 340.559C223.013 340.222 223.633 340.054 224.361 340.054C225.043 340.054 225.638 340.203 226.145 340.501C226.652 340.8 227.046 341.226 227.327 341.78C227.608 342.33 227.749 342.986 227.749 343.749V350H225.026V344.234C225.03 343.634 224.877 343.165 224.566 342.828C224.255 342.487 223.827 342.317 223.281 342.317C222.915 342.317 222.591 342.396 222.309 342.553C222.032 342.711 221.815 342.941 221.657 343.244C221.504 343.542 221.425 343.902 221.421 344.324ZM234.112 350V336.909H236.835V341.831H236.919C237.038 341.567 237.21 341.298 237.436 341.026C237.666 340.749 237.965 340.518 238.331 340.335C238.702 340.148 239.162 340.054 239.712 340.054C240.428 340.054 241.088 340.241 241.693 340.616C242.298 340.987 242.782 341.548 243.144 342.298C243.507 343.043 243.688 343.979 243.688 345.104C243.688 346.199 243.511 347.124 243.157 347.878C242.808 348.628 242.33 349.197 241.725 349.585C241.124 349.968 240.451 350.16 239.705 350.16C239.177 350.16 238.727 350.072 238.357 349.898C237.99 349.723 237.69 349.504 237.455 349.239C237.221 348.971 237.042 348.7 236.919 348.428H236.797V350H234.112ZM236.778 345.091C236.778 345.675 236.859 346.184 237.021 346.619C237.183 347.053 237.417 347.392 237.724 347.635C238.031 347.874 238.404 347.993 238.843 347.993C239.286 347.993 239.661 347.871 239.968 347.629C240.274 347.381 240.507 347.04 240.664 346.606C240.826 346.167 240.907 345.662 240.907 345.091C240.907 344.524 240.828 344.026 240.671 343.595C240.513 343.165 240.281 342.828 239.974 342.585C239.667 342.342 239.29 342.221 238.843 342.221C238.399 342.221 238.024 342.338 237.718 342.572C237.415 342.807 237.183 343.139 237.021 343.57C236.859 344 236.778 344.507 236.778 345.091ZM246.869 353.682C246.524 353.682 246.2 353.654 245.898 353.599C245.599 353.548 245.352 353.482 245.156 353.401L245.77 351.368C246.089 351.466 246.377 351.519 246.633 351.528C246.893 351.536 247.116 351.477 247.304 351.349C247.496 351.221 247.651 351.004 247.771 350.697L247.93 350.281L244.408 340.182H247.272L249.305 347.392H249.407L251.459 340.182H254.342L250.526 351.061C250.342 351.589 250.093 352.05 249.778 352.442C249.467 352.838 249.072 353.143 248.595 353.356C248.118 353.573 247.543 353.682 246.869 353.682ZM265.123 340.182V342.227H259.211V340.182H265.123ZM260.553 337.83H263.276V346.983C263.276 347.234 263.314 347.43 263.391 347.571C263.468 347.707 263.574 347.803 263.711 347.859C263.851 347.914 264.013 347.942 264.197 347.942C264.324 347.942 264.452 347.931 264.58 347.91C264.708 347.884 264.806 347.865 264.874 347.852L265.302 349.879C265.166 349.921 264.974 349.97 264.727 350.026C264.48 350.085 264.18 350.121 263.826 350.134C263.17 350.16 262.594 350.072 262.1 349.872C261.61 349.672 261.229 349.361 260.956 348.939C260.683 348.517 260.549 347.984 260.553 347.341V337.83ZM269.697 350.185C269.07 350.185 268.512 350.077 268.022 349.859C267.532 349.638 267.144 349.312 266.859 348.881C266.578 348.447 266.437 347.906 266.437 347.258C266.437 346.712 266.537 346.254 266.737 345.884C266.938 345.513 267.21 345.214 267.556 344.989C267.901 344.763 268.293 344.592 268.732 344.477C269.175 344.362 269.639 344.281 270.125 344.234C270.696 344.175 271.156 344.119 271.506 344.068C271.855 344.013 272.109 343.932 272.267 343.825C272.424 343.719 272.503 343.561 272.503 343.352V343.314C272.503 342.909 272.375 342.596 272.119 342.374C271.868 342.153 271.51 342.042 271.046 342.042C270.556 342.042 270.166 342.151 269.876 342.368C269.586 342.581 269.394 342.849 269.301 343.173L266.782 342.969C266.91 342.372 267.161 341.857 267.536 341.422C267.911 340.983 268.395 340.646 268.987 340.412C269.584 340.173 270.274 340.054 271.058 340.054C271.604 340.054 272.126 340.118 272.624 340.246C273.127 340.374 273.573 340.572 273.96 340.84C274.352 341.109 274.661 341.454 274.887 341.876C275.113 342.293 275.226 342.794 275.226 343.378V350H272.644V348.638H272.567C272.409 348.945 272.198 349.216 271.934 349.45C271.67 349.68 271.352 349.862 270.982 349.994C270.611 350.121 270.183 350.185 269.697 350.185ZM270.477 348.306C270.877 348.306 271.231 348.227 271.538 348.07C271.845 347.908 272.085 347.69 272.26 347.418C272.435 347.145 272.522 346.836 272.522 346.491V345.449C272.437 345.504 272.32 345.555 272.171 345.602C272.026 345.645 271.862 345.685 271.678 345.724C271.495 345.758 271.312 345.79 271.129 345.82C270.945 345.845 270.779 345.869 270.63 345.89C270.311 345.937 270.031 346.011 269.793 346.114C269.554 346.216 269.369 346.354 269.237 346.529C269.105 346.7 269.039 346.913 269.039 347.168C269.039 347.539 269.173 347.822 269.441 348.018C269.714 348.21 270.059 348.306 270.477 348.306ZM277.339 353.682V340.182H280.023V341.831H280.145C280.264 341.567 280.437 341.298 280.662 341.026C280.893 340.749 281.191 340.518 281.557 340.335C281.928 340.148 282.388 340.054 282.938 340.054C283.654 340.054 284.314 340.241 284.92 340.616C285.525 340.987 286.008 341.548 286.371 342.298C286.733 343.043 286.914 343.979 286.914 345.104C286.914 346.199 286.737 347.124 286.383 347.878C286.034 348.628 285.557 349.197 284.952 349.585C284.351 349.968 283.677 350.16 282.932 350.16C282.403 350.16 281.954 350.072 281.583 349.898C281.216 349.723 280.916 349.504 280.682 349.239C280.447 348.971 280.268 348.7 280.145 348.428H280.062V353.682H277.339ZM280.004 345.091C280.004 345.675 280.085 346.184 280.247 346.619C280.409 347.053 280.643 347.392 280.95 347.635C281.257 347.874 281.63 347.993 282.069 347.993C282.512 347.993 282.887 347.871 283.194 347.629C283.501 347.381 283.733 347.04 283.89 346.606C284.052 346.167 284.133 345.662 284.133 345.091C284.133 344.524 284.055 344.026 283.897 343.595C283.739 343.165 283.507 342.828 283.2 342.585C282.893 342.342 282.516 342.221 282.069 342.221C281.626 342.221 281.251 342.338 280.944 342.572C280.641 342.807 280.409 343.139 280.247 343.57C280.085 344 280.004 344.507 280.004 345.091ZM288.729 353.682V340.182H291.414V341.831H291.535C291.655 341.567 291.827 341.298 292.053 341.026C292.283 340.749 292.581 340.518 292.948 340.335C293.319 340.148 293.779 340.054 294.329 340.054C295.045 340.054 295.705 340.241 296.31 340.616C296.915 340.987 297.399 341.548 297.761 342.298C298.123 343.043 298.305 343.979 298.305 345.104C298.305 346.199 298.128 347.124 297.774 347.878C297.425 348.628 296.947 349.197 296.342 349.585C295.741 349.968 295.068 350.16 294.322 350.16C293.794 350.16 293.344 350.072 292.974 349.898C292.607 349.723 292.307 349.504 292.072 349.239C291.838 348.971 291.659 348.7 291.535 348.428H291.452V353.682H288.729ZM291.395 345.091C291.395 345.675 291.476 346.184 291.638 346.619C291.8 347.053 292.034 347.392 292.341 347.635C292.648 347.874 293.02 347.993 293.459 347.993C293.903 347.993 294.278 347.871 294.584 347.629C294.891 347.381 295.123 347.04 295.281 346.606C295.443 346.167 295.524 345.662 295.524 345.091C295.524 344.524 295.445 344.026 295.287 343.595C295.13 343.165 294.898 342.828 294.591 342.585C294.284 342.342 293.907 342.221 293.459 342.221C293.016 342.221 292.641 342.338 292.334 342.572C292.032 342.807 291.8 343.139 291.638 343.57C291.476 344 291.395 344.507 291.395 345.091ZM300.12 350V340.182H302.843V350H300.12ZM301.488 338.916C301.083 338.916 300.736 338.782 300.446 338.513C300.16 338.241 300.018 337.915 300.018 337.536C300.018 337.161 300.16 336.839 300.446 336.57C300.736 336.298 301.083 336.161 301.488 336.161C301.893 336.161 302.238 336.298 302.523 336.57C302.813 336.839 302.958 337.161 302.958 337.536C302.958 337.915 302.813 338.241 302.523 338.513C302.238 338.782 301.893 338.916 301.488 338.916ZM307.747 344.324V350H305.024V340.182H307.619V341.914H307.734C307.952 341.343 308.316 340.891 308.827 340.559C309.339 340.222 309.959 340.054 310.688 340.054C311.369 340.054 311.964 340.203 312.471 340.501C312.978 340.8 313.372 341.226 313.653 341.78C313.935 342.33 314.075 342.986 314.075 343.749V350H311.352V344.234C311.357 343.634 311.203 343.165 310.892 342.828C310.581 342.487 310.153 342.317 309.607 342.317C309.241 342.317 308.917 342.396 308.636 342.553C308.359 342.711 308.141 342.941 307.984 343.244C307.83 343.542 307.751 343.902 307.747 344.324ZM320.645 353.886C319.763 353.886 319.006 353.765 318.376 353.522C317.749 353.283 317.251 352.957 316.88 352.544C316.509 352.131 316.268 351.666 316.157 351.151L318.676 350.812C318.753 351.008 318.874 351.191 319.04 351.362C319.206 351.532 319.426 351.668 319.699 351.771C319.976 351.877 320.312 351.93 320.709 351.93C321.301 351.93 321.789 351.786 322.172 351.496C322.56 351.21 322.754 350.731 322.754 350.058V348.261H322.639C322.52 348.534 322.341 348.792 322.102 349.035C321.863 349.278 321.557 349.476 321.182 349.629C320.807 349.783 320.359 349.859 319.839 349.859C319.102 349.859 318.431 349.689 317.826 349.348C317.225 349.003 316.746 348.477 316.388 347.769C316.034 347.058 315.857 346.158 315.857 345.072C315.857 343.96 316.038 343.031 316.4 342.285C316.763 341.539 317.244 340.981 317.845 340.61C318.45 340.239 319.113 340.054 319.833 340.054C320.383 340.054 320.843 340.148 321.214 340.335C321.584 340.518 321.883 340.749 322.108 341.026C322.339 341.298 322.515 341.567 322.639 341.831H322.741V340.182H325.445V350.096C325.445 350.931 325.241 351.63 324.831 352.192C324.422 352.755 323.856 353.177 323.131 353.458C322.411 353.744 321.582 353.886 320.645 353.886ZM320.702 347.814C321.141 347.814 321.512 347.705 321.814 347.488C322.121 347.266 322.356 346.951 322.518 346.542C322.684 346.129 322.767 345.634 322.767 345.059C322.767 344.484 322.686 343.985 322.524 343.563C322.362 343.137 322.128 342.807 321.821 342.572C321.514 342.338 321.141 342.221 320.702 342.221C320.255 342.221 319.878 342.342 319.571 342.585C319.264 342.824 319.032 343.156 318.874 343.582C318.716 344.009 318.638 344.501 318.638 345.059C318.638 345.626 318.716 346.116 318.874 346.529C319.036 346.938 319.268 347.256 319.571 347.482C319.878 347.703 320.255 347.814 320.702 347.814ZM171.482 372.324V378H168.759V364.909H171.405V369.914H171.52C171.741 369.335 172.099 368.881 172.594 368.553C173.088 368.22 173.708 368.054 174.454 368.054C175.136 368.054 175.73 368.203 176.237 368.501C176.749 368.795 177.145 369.219 177.426 369.773C177.712 370.323 177.852 370.982 177.848 371.749V378H175.125V372.234C175.129 371.629 174.976 371.158 174.665 370.822C174.358 370.485 173.928 370.317 173.374 370.317C173.003 370.317 172.675 370.396 172.389 370.553C172.108 370.711 171.886 370.941 171.724 371.244C171.567 371.542 171.486 371.902 171.482 372.324ZM184.465 378.192C183.455 378.192 182.586 377.987 181.857 377.578C181.133 377.165 180.575 376.581 180.183 375.827C179.791 375.068 179.595 374.171 179.595 373.136C179.595 372.126 179.791 371.239 180.183 370.477C180.575 369.714 181.127 369.119 181.838 368.693C182.554 368.267 183.394 368.054 184.357 368.054C185.004 368.054 185.607 368.158 186.166 368.367C186.728 368.572 187.218 368.881 187.636 369.294C188.058 369.707 188.386 370.227 188.62 370.854C188.855 371.476 188.972 372.205 188.972 373.04V373.788H180.681V372.1H186.409C186.409 371.708 186.323 371.361 186.153 371.058C185.982 370.756 185.746 370.519 185.443 370.349C185.145 370.174 184.798 370.087 184.401 370.087C183.988 370.087 183.622 370.183 183.302 370.374C182.987 370.562 182.74 370.815 182.561 371.135C182.382 371.45 182.29 371.802 182.286 372.19V373.794C182.286 374.28 182.375 374.7 182.554 375.053C182.737 375.407 182.995 375.68 183.328 375.871C183.66 376.063 184.054 376.159 184.51 376.159C184.813 376.159 185.09 376.116 185.341 376.031C185.593 375.946 185.808 375.818 185.987 375.648C186.166 375.477 186.302 375.268 186.396 375.021L188.914 375.188C188.786 375.793 188.524 376.321 188.128 376.773C187.736 377.22 187.229 377.57 186.607 377.821C185.989 378.068 185.275 378.192 184.465 378.192ZM190.749 378V368.182H193.389V369.895H193.491C193.67 369.286 193.97 368.825 194.392 368.514C194.814 368.199 195.3 368.041 195.85 368.041C195.986 368.041 196.133 368.05 196.291 368.067C196.448 368.084 196.587 368.107 196.706 368.137V370.553C196.578 370.515 196.401 370.481 196.176 370.451C195.95 370.421 195.743 370.406 195.556 370.406C195.155 370.406 194.797 370.494 194.482 370.668C194.171 370.839 193.923 371.077 193.74 371.384C193.561 371.691 193.472 372.045 193.472 372.445V378H190.749ZM202.131 378.192C201.121 378.192 200.252 377.987 199.523 377.578C198.799 377.165 198.241 376.581 197.849 375.827C197.457 375.068 197.261 374.171 197.261 373.136C197.261 372.126 197.457 371.239 197.849 370.477C198.241 369.714 198.793 369.119 199.504 368.693C200.22 368.267 201.06 368.054 202.023 368.054C202.67 368.054 203.273 368.158 203.832 368.367C204.394 368.572 204.884 368.881 205.302 369.294C205.724 369.707 206.052 370.227 206.286 370.854C206.521 371.476 206.638 372.205 206.638 373.04V373.788H198.347V372.1H204.075C204.075 371.708 203.989 371.361 203.819 371.058C203.648 370.756 203.412 370.519 203.109 370.349C202.811 370.174 202.464 370.087 202.067 370.087C201.654 370.087 201.288 370.183 200.968 370.374C200.653 370.562 200.406 370.815 200.227 371.135C200.048 371.45 199.956 371.802 199.952 372.19V373.794C199.952 374.28 200.041 374.7 200.22 375.053C200.403 375.407 200.661 375.68 200.994 375.871C201.326 376.063 201.72 376.159 202.176 376.159C202.479 376.159 202.756 376.116 203.007 376.031C203.259 375.946 203.474 375.818 203.653 375.648C203.832 375.477 203.968 375.268 204.062 375.021L206.58 375.188C206.452 375.793 206.19 376.321 205.794 376.773C205.402 377.22 204.895 377.57 204.273 377.821C203.655 378.068 202.941 378.192 202.131 378.192Z" fill="#BBD9E2"/>
<path fill-rule="evenodd" clip-rule="evenodd" d="M186 764C188.209 764 190 762.209 190 760C190 757.791 188.209 756 186 756C183.791 756 182 757.791 182 760C182 762.209 183.791 764 186 764Z" fill="#BBD9E2"/>
<path d="M204 754C207.314 754 210 756.686 210 760C210 763.314 207.314 766 204 766C200.686 766 198 763.314 198 760C198 756.686 200.686 754 204 754Z" stroke="#BBD9E2" stroke-width="2"/>
<path fill-rule="evenodd" clip-rule="evenodd" d="M168 764C170.209 764 172 762.209 172 760C172 757.791 170.209 756 168 756C165.791 756 164 757.791 164 760C164 762.209 165.791 764 168 764Z" fill="#BBD9E2"/>
<g filter="url(#filter0_d_96_4647)">
<rect x="223" y="562" width="50" height="50" rx="25" fill="#FCE5CD"/>
</g>
<g filter="url(#filter1_d_96_4647)">
<circle cx="248" cy="587" r="9.75" fill="#FCE5CD"/>
</g>
<path fill-rule="evenodd" clip-rule="evenodd" d="M247.8 581C247.248 581 246.8 580.552 246.8 580V579.342C243.348 579.879 240.65 582.693 240.291 586.2H241C241.552 586.2 242 586.648 242 587.2C242 587.752 241.552 588.2 241 588.2H240.342C240.858 591.519 243.481 594.142 246.8 594.658V594C246.8 593.448 247.248 593 247.8 593C248.352 593 248.8 593.448 248.8 594V594.709C252.307 594.35 255.121 591.652 255.658 588.2H255C254.448 588.2 254 587.752 254 587.2C254 586.648 254.448 586.2 255 586.2H255.709C255.336 582.559 252.441 579.664 248.8 579.291V580C248.8 580.552 248.352 581 247.8 581ZM248.8 596.718C253.413 596.343 257.117 592.758 257.677 588.2H259C259.552 588.2 260 587.752 260 587.2C260 586.648 259.552 586.2 259 586.2H257.718C257.332 581.453 253.547 577.668 248.8 577.282V576C248.8 575.448 248.352 575 247.8 575C247.248 575 246.8 575.448 246.8 576V577.323C242.242 577.883 238.657 581.587 238.282 586.2H237C236.448 586.2 236 586.648 236 587.2C236 587.752 236.448 588.2 237 588.2H238.323C238.866 592.625 242.375 596.134 246.8 596.677V598C246.8 598.552 247.248 599 247.8 599C248.352 599 248.8 598.552 248.8 598V596.718ZM248 589.5C249.381 589.5 250.5 588.381 250.5 587C250.5 585.619 249.381 584.5 248 584.5C246.619 584.5 245.5 585.619 245.5 587C245.5 588.381 246.619 589.5 248 589.5Z" fill="#3E4958"/>
<path d="M189.416 406C158.416 434.5 163.416 483.5 189.416 508" stroke="#BBD9E2" stroke-linecap="round"/>
<g filter="url(#filter2_d_96_4647)">
<path d="M184.416 513L194.316 503.101L196.437 515.121L184.416 513Z" fill="#BBD9E2"/>
</g>
</g>
<defs>
<filter id="filter0_d_96_4647" x="208" y="551" width="80" height="80" filterUnits="userSpaceOnUse" color-interpolation-filters="sRGB">
<feFlood flood-opacity="0" result="BackgroundImageFix"/>
<feColorMatrix in="SourceAlpha" type="matrix" values="0 0 0 0 0 0 0 0 0 0 0 0 0 0 0 0 0 0 127 0" result="hardAlpha"/>
<feOffset dy="4"/>
<feGaussianBlur stdDeviation="7.5"/>
<feColorMatrix type="matrix" values="0 0 0 0 0 0 0 0 0 0 0 0 0 0 0 0 0 0 0.15 0"/>
<feBlend mode="normal" in2="BackgroundImageFix" result="effect1_dropShadow_96_4647"/>
<feBlend mode="normal" in="SourceGraphic" in2="effect1_dropShadow_96_4647" result="shape"/>
</filter>
<filter id="filter1_d_96_4647" x="223.25" y="566.25" width="49.5" height="49.5" filterUnits="userSpaceOnUse" color-interpolation-filters="sRGB">
<feFlood flood-opacity="0" result="BackgroundImageFix"/>
<feColorMatrix in="SourceAlpha" type="matrix" values="0 0 0 0 0 0 0 0 0 0 0 0 0 0 0 0 0 0 127 0" result="hardAlpha"/>
<feOffset dy="4"/>
<feGaussianBlur stdDeviation="7.5"/>
<feColorMatrix type="matrix" values="0 0 0 0 0 0 0 0 0 0 0 0 0 0 0 0 0 0 0.15 0"/>
<feBlend mode="normal" in2="BackgroundImageFix" result="effect1_dropShadow_96_4647"/>
<feBlend mode="normal" in="SourceGraphic" in2="effect1_dropShadow_96_4647" result="shape"/>
</filter>
<filter id="filter2_d_96_4647" x="169.416" y="492.1" width="42.0209" height="42.0208" filterUnits="userSpaceOnUse" color-interpolation-filters="sRGB">
<feFlood flood-opacity="0" result="BackgroundImageFix"/>
<feColorMatrix in="SourceAlpha" type="matrix" values="0 0 0 0 0 0 0 0 0 0 0 0 0 0 0 0 0 0 127 0" result="hardAlpha"/>
<feOffset dy="4"/>
<feGaussianBlur stdDeviation="7.5"/>
<feColorMatrix type="matrix" values="0 0 0 0 0 0 0 0 0 0 0 0 0 0 0 0 0 0 0.15 0"/>
<feBlend mode="normal" in2="BackgroundImageFix" result="effect1_dropShadow_96_4647"/>
<feBlend mode="normal" in="SourceGraphic" in2="effect1_dropShadow_96_4647" result="shape"/>
</filter>
<clipPath id="clip0_96_4647">
<rect width="375" height="812" fill="white"/>
</clipPath>
</defs>
</svg>
