<svg width="47" height="14" viewBox="0 0 47 14" fill="none" xmlns="http://www.w3.org/2000/svg">
<path fill-rule="evenodd" clip-rule="evenodd" d="M43 11C45.2091 11 47 9.20914 47 7C47 4.79086 45.2091 3 43 3C40.7909 3 39 4.79086 39 7C39 9.20914 40.7909 11 43 11Z" fill="#3E4958"/>
<path fill-rule="evenodd" clip-rule="evenodd" d="M4 11C6.20914 11 8 9.20914 8 7C8 4.79086 6.20914 3 4 3C1.79086 3 0 4.79086 0 7C0 9.20914 1.79086 11 4 11Z" fill="#3E4958"/>
<path d="M30 7C30 10.3137 27.3137 13 24 13C20.6863 13 18 10.3137 18 7C18 3.68629 20.6863 1 24 1C27.3137 1 30 3.68629 30 7Z" fill="#3E4958" stroke="#3E4958" stroke-width="2"/>
</svg>
