<svg width="55" height="14" viewBox="0 0 55 14" fill="none" xmlns="http://www.w3.org/2000/svg">
<rect width="55" height="14" fill="#F5F5F5"/>
<path d="M-257 -774C-257 -818.183 -221.183 -854 -177 -854H1186C1230.18 -854 1266 -818.183 1266 -774V78C1266 122.183 1230.18 158 1186 158H-177C-221.183 158 -257 122.183 -257 78V-774Z" fill="white"/>
<path d="M-177 -853H1186V-855H-177V-853ZM1265 -774V78H1267V-774H1265ZM1186 157H-177V159H1186V157ZM-256 78V-774H-258V78H-256ZM-177 157C-220.63 157 -256 121.63 -256 78H-258C-258 122.735 -221.735 159 -177 159V157ZM1265 78C1265 121.63 1229.63 157 1186 157V159C1230.74 159 1267 122.735 1267 78H1265ZM1186 -853C1229.63 -853 1265 -817.63 1265 -774H1267C1267 -818.735 1230.74 -855 1186 -855V-853ZM-177 -855C-221.735 -855 -258 -818.735 -258 -774H-256C-256 -817.631 -220.63 -853 -177 -853V-855Z" fill="#97ADB6"/>
<rect width="375" height="812" transform="translate(-157 -754)" fill="#BBD9E2"/>
<path fill-rule="evenodd" clip-rule="evenodd" d="M29 10C31.2091 10 33 8.20914 33 6C33 3.79086 31.2091 2 29 2C26.7909 2 25 3.79086 25 6C25 8.20914 26.7909 10 29 10Z" fill="#3E4958"/>
<path d="M13 7C13 10.3137 10.3137 13 7 13C3.68629 13 1 10.3137 1 7C1 3.68629 3.68629 1 7 1C10.3137 1 13 3.68629 13 7Z" fill="#3E4958" stroke="#3E4958" stroke-width="2"/>
<path fill-rule="evenodd" clip-rule="evenodd" d="M51 10C53.2091 10 55 8.20914 55 6C55 3.79086 53.2091 2 51 2C48.7909 2 47 3.79086 47 6C47 8.20914 48.7909 10 51 10Z" fill="#3E4958"/>
</svg>
